<svg width="146" height="29" viewBox="0 0 146 29" fill="none" xmlns="http://www.w3.org/2000/svg">
<path d="M5.38281 27.7H0.337891V2.49292H5.38281V12.5828H15.4551V2.49292H20.5V27.7H15.4551V17.6277H5.38281V27.7ZM42.6309 27.7H41.4707L39.6074 25.116C39.1504 25.5261 38.6641 25.9128 38.1484 26.2761C37.6445 26.6277 37.1113 26.9382 36.5488 27.2078C35.9863 27.4656 35.4062 27.6707 34.8086 27.823C34.2227 27.9753 33.625 28.0515 33.0156 28.0515C31.6914 28.0515 30.4434 27.8289 29.2715 27.3835C28.1113 26.9382 27.0918 26.2937 26.2129 25.45C25.3457 24.5945 24.6602 23.5515 24.1562 22.321C23.6523 21.0906 23.4004 19.6902 23.4004 18.1199C23.4004 16.655 23.6523 15.3132 24.1562 14.0945C24.6602 12.864 25.3457 11.8093 26.2129 10.9304C27.0918 10.0515 28.1113 9.37183 29.2715 8.89136C30.4434 8.39917 31.6914 8.15308 33.0156 8.15308C33.625 8.15308 34.2285 8.22925 34.8262 8.38159C35.4238 8.53394 36.0039 8.74487 36.5664 9.0144C37.1289 9.28394 37.6621 9.60034 38.166 9.96362C38.6816 10.3269 39.1621 10.7195 39.6074 11.1414L41.4707 8.90894H42.6309V27.7ZM37.7969 18.1199C37.7969 17.4636 37.668 16.8308 37.4102 16.2214C37.1641 15.6003 36.8242 15.0554 36.3906 14.5867C35.957 14.1062 35.4473 13.7253 34.8613 13.4441C34.2871 13.1511 33.6719 13.0046 33.0156 13.0046C32.3594 13.0046 31.7383 13.116 31.1523 13.3386C30.5781 13.5613 30.0742 13.8894 29.6406 14.323C29.2188 14.7566 28.8848 15.2957 28.6387 15.9402C28.3926 16.573 28.2695 17.2996 28.2695 18.1199C28.2695 18.9402 28.3926 19.6726 28.6387 20.3171C28.8848 20.95 29.2188 21.4832 29.6406 21.9167C30.0742 22.3503 30.5781 22.6785 31.1523 22.9011C31.7383 23.1238 32.3594 23.2351 33.0156 23.2351C33.6719 23.2351 34.2871 23.0945 34.8613 22.8132C35.4473 22.5203 35.957 22.1394 36.3906 21.6707C36.8242 21.1902 37.1641 20.6453 37.4102 20.0359C37.668 19.4148 37.7969 18.7761 37.7969 18.1199ZM65.1484 18.1199C65.1484 19.5964 64.8965 20.9441 64.3926 22.1628C63.8887 23.3816 63.2031 24.4304 62.3359 25.3093C61.4688 26.1765 60.4492 26.8503 59.2773 27.3308C58.1172 27.8113 56.8691 28.0515 55.5332 28.0515C54.209 28.0515 52.9609 27.8054 51.7891 27.3132C50.6289 26.821 49.6094 26.1355 48.7305 25.2566C47.8633 24.3777 47.1777 23.3347 46.6738 22.1277C46.1699 20.9089 45.918 19.573 45.918 18.1199V1.3855H50.7344V10.1746C50.9922 9.84644 51.3027 9.55347 51.666 9.29565C52.041 9.03784 52.4395 8.8269 52.8613 8.66284C53.2949 8.49878 53.7402 8.37573 54.1973 8.2937C54.6543 8.19995 55.0996 8.15308 55.5332 8.15308C56.8691 8.15308 58.1172 8.40503 59.2773 8.90894C60.4492 9.40112 61.4688 10.0925 62.3359 10.9832C63.2031 11.8738 63.8887 12.9285 64.3926 14.1472C64.8965 15.3542 65.1484 16.6785 65.1484 18.1199ZM60.3145 18.1199C60.3145 17.3933 60.1855 16.7195 59.9277 16.0984C59.6816 15.4656 59.3418 14.9207 58.9082 14.4636C58.4746 14.0066 57.9648 13.6492 57.3789 13.3914C56.8047 13.1335 56.1895 13.0046 55.5332 13.0046C54.877 13.0046 54.2559 13.1511 53.6699 13.4441C53.0957 13.7253 52.5918 14.1062 52.1582 14.5867C51.7246 15.0554 51.3848 15.6003 51.1387 16.2214C50.8926 16.8308 50.7695 17.4636 50.7695 18.1199C50.7695 18.8464 50.8926 19.5203 51.1387 20.1414C51.3848 20.7625 51.7246 21.3015 52.1582 21.7585C52.5918 22.2156 53.0957 22.5789 53.6699 22.8484C54.2559 23.1062 54.877 23.2351 55.5332 23.2351C56.1895 23.2351 56.8047 23.1062 57.3789 22.8484C57.9648 22.5789 58.4746 22.2156 58.9082 21.7585C59.3418 21.3015 59.6816 20.7625 59.9277 20.1414C60.1855 19.5203 60.3145 18.8464 60.3145 18.1199ZM73.4805 3.75854C73.4805 4.20386 73.3926 4.61987 73.2168 5.00659C73.0527 5.39331 72.8242 5.73315 72.5312 6.02612C72.2383 6.30737 71.8926 6.53589 71.4941 6.71167C71.1074 6.87573 70.6914 6.95776 70.2461 6.95776C69.8008 6.95776 69.3789 6.87573 68.9805 6.71167C68.5938 6.53589 68.2539 6.30737 67.9609 6.02612C67.6797 5.73315 67.4512 5.39331 67.2754 5.00659C67.1113 4.61987 67.0293 4.20386 67.0293 3.75854C67.0293 3.32495 67.1113 2.91479 67.2754 2.52808C67.4512 2.12964 67.6797 1.78979 67.9609 1.50854C68.2539 1.21558 68.5938 0.987061 68.9805 0.822998C69.3789 0.647217 69.8008 0.559326 70.2461 0.559326C70.6914 0.559326 71.1074 0.647217 71.4941 0.822998C71.8926 0.987061 72.2383 1.21558 72.5312 1.50854C72.8242 1.78979 73.0527 2.12964 73.2168 2.52808C73.3926 2.91479 73.4805 3.32495 73.4805 3.75854ZM72.6543 27.7H67.8203V8.87378H72.6543V27.7ZM85.7676 27.7C84.6074 27.7 83.5176 27.4832 82.498 27.0496C81.4785 26.6042 80.582 26.0007 79.8086 25.239C79.0469 24.4656 78.4434 23.5691 77.998 22.5496C77.5645 21.53 77.3477 20.4402 77.3477 19.28V13.6902H75.0098V8.90894H77.3477V1.3855H82.1289V8.90894H89.4062V13.6902H82.1289V19.28C82.1289 19.7839 82.2227 20.2585 82.4102 20.7039C82.5977 21.1375 82.8555 21.5183 83.1836 21.8464C83.5117 22.1746 83.8984 22.4382 84.3438 22.6375C84.7891 22.825 85.2637 22.9187 85.7676 22.9187H89.4062V27.7H85.7676ZM110.342 27.7H109.182L107.318 25.116C106.861 25.5261 106.375 25.9128 105.859 26.2761C105.355 26.6277 104.822 26.9382 104.26 27.2078C103.697 27.4656 103.117 27.6707 102.52 27.823C101.934 27.9753 101.336 28.0515 100.727 28.0515C99.4023 28.0515 98.1543 27.8289 96.9824 27.3835C95.8223 26.9382 94.8027 26.2937 93.9238 25.45C93.0566 24.5945 92.3711 23.5515 91.8672 22.321C91.3633 21.0906 91.1113 19.6902 91.1113 18.1199C91.1113 16.655 91.3633 15.3132 91.8672 14.0945C92.3711 12.864 93.0566 11.8093 93.9238 10.9304C94.8027 10.0515 95.8223 9.37183 96.9824 8.89136C98.1543 8.39917 99.4023 8.15308 100.727 8.15308C101.336 8.15308 101.939 8.22925 102.537 8.38159C103.135 8.53394 103.715 8.74487 104.277 9.0144C104.84 9.28394 105.373 9.60034 105.877 9.96362C106.393 10.3269 106.873 10.7195 107.318 11.1414L109.182 8.90894H110.342V27.7ZM105.508 18.1199C105.508 17.4636 105.379 16.8308 105.121 16.2214C104.875 15.6003 104.535 15.0554 104.102 14.5867C103.668 14.1062 103.158 13.7253 102.572 13.4441C101.998 13.1511 101.383 13.0046 100.727 13.0046C100.07 13.0046 99.4492 13.116 98.8633 13.3386C98.2891 13.5613 97.7852 13.8894 97.3516 14.323C96.9297 14.7566 96.5957 15.2957 96.3496 15.9402C96.1035 16.573 95.9805 17.2996 95.9805 18.1199C95.9805 18.9402 96.1035 19.6726 96.3496 20.3171C96.5957 20.95 96.9297 21.4832 97.3516 21.9167C97.7852 22.3503 98.2891 22.6785 98.8633 22.9011C99.4492 23.1238 100.07 23.2351 100.727 23.2351C101.383 23.2351 101.998 23.0945 102.572 22.8132C103.158 22.5203 103.668 22.1394 104.102 21.6707C104.535 21.1902 104.875 20.6453 105.121 20.0359C105.379 19.4148 105.508 18.7761 105.508 18.1199ZM118.814 27.7H114.016V8.87378H115.176L116.758 11.1062C117.531 10.4031 118.41 9.86401 119.395 9.48901C120.379 9.10229 121.398 8.90894 122.453 8.90894H126.689V13.6902H122.453C121.949 13.6902 121.475 13.7839 121.029 13.9714C120.584 14.1589 120.197 14.4167 119.869 14.7449C119.541 15.073 119.283 15.4597 119.096 15.905C118.908 16.3503 118.814 16.825 118.814 17.3289V27.7ZM136.059 23.0945C136.246 23.1531 136.434 23.1941 136.621 23.2175C136.809 23.2292 136.996 23.2351 137.184 23.2351C137.652 23.2351 138.104 23.1707 138.537 23.0417C138.971 22.9128 139.375 22.7312 139.75 22.4968C140.137 22.2507 140.477 21.9578 140.77 21.6179C141.074 21.2664 141.32 20.8796 141.508 20.4578L145.023 23.991C144.578 24.6238 144.062 25.1921 143.477 25.696C142.902 26.2 142.275 26.6277 141.596 26.9792C140.928 27.3308 140.219 27.5945 139.469 27.7703C138.73 27.9578 137.969 28.0515 137.184 28.0515C135.859 28.0515 134.611 27.8054 133.439 27.3132C132.279 26.821 131.26 26.1355 130.381 25.2566C129.514 24.3777 128.828 23.3347 128.324 22.1277C127.82 20.9089 127.568 19.573 127.568 18.1199C127.568 16.6316 127.82 15.2722 128.324 14.0417C128.828 12.8113 129.514 11.7625 130.381 10.8953C131.26 10.0281 132.279 9.35425 133.439 8.87378C134.611 8.39331 135.859 8.15308 137.184 8.15308C137.969 8.15308 138.736 8.24683 139.486 8.43433C140.236 8.62183 140.945 8.89136 141.613 9.24292C142.293 9.59448 142.926 10.0281 143.512 10.5437C144.098 11.0476 144.613 11.616 145.059 12.2488L136.059 23.0945ZM138.52 13.198C138.297 13.116 138.074 13.0632 137.852 13.0398C137.641 13.0164 137.418 13.0046 137.184 13.0046C136.527 13.0046 135.906 13.1277 135.32 13.3738C134.746 13.6082 134.242 13.948 133.809 14.3933C133.387 14.8386 133.053 15.3777 132.807 16.0105C132.561 16.6316 132.438 17.3347 132.438 18.1199C132.438 18.2957 132.443 18.4949 132.455 18.7175C132.479 18.9402 132.508 19.1687 132.543 19.4031C132.59 19.6257 132.643 19.8425 132.701 20.0535C132.76 20.2644 132.836 20.4519 132.93 20.616L138.52 13.198Z" fill="#010B14"/>
</svg>
