<svg width="28" height="28" viewBox="0 0 28 28" fill="none" xmlns="http://www.w3.org/2000/svg">
<g clip-path="url(#clip0)">
<path d="M19.726 7.63504H16.7563C16.1889 7.63504 15.9052 8.31913 16.3056 8.72216L17.1779 9.54413L14.5476 12.1771C14.3832 12.3415 14.3832 12.6119 14.5476 12.7763L15.2211 13.4498C15.3855 13.6142 15.6559 13.6142 15.8203 13.4498L18.4533 10.8169L19.2779 11.6919C19.6783 12.0922 20.3624 11.8085 20.3624 11.2411V8.2714C20.3624 7.91875 20.0787 7.63504 19.726 7.63504ZM22.6957 5.93807H25.6654C26.2328 5.93807 26.5166 5.25133 26.1162 4.85095L25.2412 4.02898L27.8741 1.39602C28.0385 1.23163 28.0385 0.961174 27.8741 0.79678L27.2006 0.123295C27.0362 -0.0410985 26.7658 -0.0410985 26.6014 0.123295L23.9684 2.75625L23.1438 1.88125C22.7434 1.48087 22.0594 1.76458 22.0594 2.33201V5.3017C22.0594 5.65436 22.3431 5.93807 22.6957 5.93807ZM25.2412 9.54413L26.1162 8.71951C26.5166 8.31913 26.2328 7.63504 25.6654 7.63504H22.6957C22.3431 7.63504 22.0594 7.91875 22.0594 8.2714V11.2411C22.0594 11.8085 22.7461 12.0922 23.1465 11.6919L23.9684 10.8195L26.6014 13.4525C26.7658 13.6169 27.0362 13.6169 27.2006 13.4525L27.8741 12.779C28.0385 12.6146 28.0385 12.3441 27.8741 12.1797L25.2412 9.54413ZM19.2753 1.8839L18.4533 2.75625L15.8203 0.123295C15.6559 -0.0410985 15.3855 -0.0410985 15.2211 0.123295L14.5476 0.79678C14.3832 0.961174 14.3832 1.23163 14.5476 1.39602L17.1806 4.02898L16.3056 4.8536C15.9052 5.25398 16.1889 5.93807 16.7563 5.93807H19.726C20.0787 5.93807 20.3624 5.65436 20.3624 5.3017V2.33201C20.3624 1.76723 19.6756 1.48352 19.2753 1.8839Z" fill="#F93676"/>
<path d="M6.9575 18.3216L1.80697 22.8645C1.76879 22.8989 1.72 22.915 1.67805 22.9435V27.3023C1.67805 27.5107 1.8468 27.6794 2.05515 27.6794H5.57235L4.69488 25.9634L7.14864 24.455L5.73073 21.6451L9.22012 24.8688L6.76635 26.3772L7.70723 27.6794H11.8598C12.0682 27.6794 12.2369 27.5107 12.2369 27.3023V22.9444C12.1969 22.9171 12.1493 22.9015 12.113 22.869L6.9575 18.3216ZM13.6202 21.181L12.2369 19.9594V16.7434C12.2369 16.5351 12.0682 16.3663 11.8598 16.3663H10.3514C10.1431 16.3663 9.97432 16.5351 9.97432 16.7434V17.9617L7.58797 15.8551C7.40814 15.6934 7.18282 15.6124 6.9575 15.6121C6.73218 15.6119 6.50733 15.6925 6.32821 15.8542L0.294788 21.181C0.13994 21.3203 0.126977 21.5586 0.266269 21.7137L0.770645 22.2751C0.909702 22.4299 1.14822 22.4429 1.3033 22.3036L6.70814 17.5361C6.85073 17.4104 7.0645 17.4104 7.20709 17.5361L12.6119 22.3034C12.7668 22.4424 13.0053 22.4297 13.1446 22.2748L13.649 21.7134C13.788 21.5586 13.7753 21.3201 13.6202 21.181Z" fill="#E85AED"/>
<path d="M6.95756 14.2546C9.05125 14.2546 10.9634 13.302 12.2303 11.7411C12.4177 11.5102 12.2133 11.1729 11.9237 11.2281C8.63045 11.8553 5.60616 9.33022 5.60616 6.0058C5.60616 4.09083 6.63129 2.32987 8.29739 1.38172C8.55422 1.23557 8.48963 0.846193 8.1978 0.792287C7.78869 0.71685 7.37356 0.678864 6.95756 0.678802C3.21073 0.678802 0.169678 3.71508 0.169678 7.46668C0.169678 11.2135 3.20595 14.2546 6.95756 14.2546Z" fill="#6C5FD3"/>
<path d="M16.625 17.7143H15C15 21.0277 17.5467 23.7143 20.6875 23.7143V27.5714C20.6875 27.8071 20.8703 28 21.0938 28H21.9062C22.1297 28 22.3125 27.8071 22.3125 27.5714V23.7143C22.3125 20.4009 19.7658 17.7143 16.625 17.7143ZM26.375 16C24.2371 16 22.3785 17.2455 21.4061 19.0857C22.1094 19.8946 22.6299 20.8777 22.9041 21.9679C25.7656 21.6545 28 19.1045 28 16H26.375Z" fill="#5FD3D2"/>
</g>
<defs>
<clipPath id="clip0">
<rect width="28" height="28" fill="white"/>
</clipPath>
</defs>
</svg>
