<svg width="742" height="616" viewBox="0 0 742 616" fill="none" xmlns="http://www.w3.org/2000/svg">
<path d="M45.5446 553C1.723 522 127.429 480.887 120.973 421.818C114.517 362.753 84.5903 309.321 58.6447 255.86C32.6992 202.404 9.75139 143.756 18.6745 85.0101C23.501 53.1997 40.3835 20.4556 70.3633 8.76347C107.646 -5.77387 147.845 16.4846 184.91 31.5484C243.05 55.1755 308.058 61.6004 369.707 49.8111C424.982 39.2369 478.372 14.3517 534.607 16.5879C604.108 19.3512 667.499 65.4065 701.902 125.841C736.317 186.276 744.404 259.001 736.223 328.059C728.64 392.054 706.278 456.636 660.419 501.907C619.331 542.459 562.653 564.214 505.584 572.918C448.514 581.622 390.371 578.307 332.739 574.971C239.205 569.557 181.402 629.5 131.223 599.5" fill="#C45FD3"/>
<path d="M190.839 612.638C206.495 532.242 180.721 449.37 144.803 386.198C125.288 351.877 102.659 321.235 80.0315 290.807C68.4781 275.284 56.913 259.785 45.7131 243.795C34.6212 227.968 23.4677 211.777 15.1612 192.915C6.97539 174.349 1.89522 152.645 5.08617 130.968C7.79853 112.552 15.7773 96.3509 26.0393 84.1573C50.8567 54.6815 85.3124 53.6527 115.747 65.1873C148.755 77.6964 177.583 103.85 207.958 124.626C234.835 143.02 263.449 155.904 293.15 162.245C358.097 176.111 425.876 160.278 483.019 116.019C484.994 114.487 483.185 110.322 481.199 111.857C427.616 153.362 364.462 169.621 303.256 159.338C271.41 153.988 240.48 141.216 211.695 121.785C182.182 101.87 154.322 76.6707 122.757 62.9996C94.7662 50.8812 62.6845 47.7233 36.4203 68.2231C15.3591 84.6597 -0.848931 115.048 0.67407 149.333C2.50253 190.613 26.2973 223.342 46.153 251.386C68.6704 283.184 92.5077 313.205 114.613 345.549C162.601 415.757 206.875 511.451 187.421 611.362C186.833 614.368 190.252 615.628 190.839 612.625" fill="#3E4042"/>
</svg>
