<svg width="648" height="899" viewBox="0 0 648 899" fill="none" xmlns="http://www.w3.org/2000/svg">
<path d="M230.523 891.277C292.81 923 345.88 820.343 390.201 768.406C434.525 716.463 481.583 661.405 546.555 640.375C564.534 634.556 583.446 631.548 600.806 624.082C618.165 616.617 634.484 603.437 639.302 585.168C644.043 567.186 636.663 547.966 625.614 533.006C614.566 518.046 600.021 506.072 587.594 492.235C544.138 443.849 529.381 371.449 550.435 309.925C564.314 269.363 592.48 233.046 595.879 190.316C599.758 141.56 569.188 95.0997 529.087 67.0878C488.987 39.077 440.461 26.2632 392.801 15.2511C343.429 3.84333 290.486 -5.97248 243.144 12.088C205.879 26.3045 176.293 56.9056 158.043 92.3613C139.792 127.819 132.083 167.897 129.809 207.709C116.974 432.548 -63.6902 742 32.8098 789" fill="#C45FD3"/>
<path d="M264.15 827.394C268.666 785.044 309.018 759.356 346.179 747.712C386.714 735.01 430.637 732.253 467.952 710.426C483.448 701.363 497.426 689.13 506.352 673.379C516.458 655.547 519.326 634.748 518.699 614.517C517.246 567.61 497.943 521.884 511.047 475.032C523.249 431.396 554.26 396.784 583.017 363.119C597.329 346.366 611.505 329.353 623.289 310.688C633.937 293.823 642.834 274.57 643.636 254.334C645.166 215.735 613.23 194.258 580.714 182.506C536.875 166.663 490.829 157.337 446.816 142.004C436.124 138.278 425.668 133.67 416.428 127.051C407.766 120.847 400.237 113.238 392.948 105.511C379.353 91.1001 366.133 76.6216 348.652 66.8202C314.352 47.5912 273.364 45.7475 234.969 47.2723C224.85 47.6746 214.745 48.3406 204.645 49.0696C202.386 49.2323 202.391 52.7693 204.667 52.6052C244.203 49.7544 285.736 47.2272 323.964 59.8564C343.703 66.3773 360.674 77.3427 375.306 92.038C389.059 105.851 401.324 121.501 417.815 132.264C435.576 143.855 456.771 148.974 476.868 154.916C500.764 161.981 524.66 169.047 548.556 176.112C582.18 186.055 628.188 197.771 638.331 236.769C643.982 258.499 635.927 281.379 625.386 300.286C614.545 319.733 600.336 337.21 586.01 354.161C558.909 386.232 529.504 417.716 513.463 457.176C505.315 477.218 501.749 498.245 502.88 519.853C504.12 543.565 509.812 566.696 513.019 590.158C515.943 611.541 516.911 633.958 510.489 654.824C504.333 674.822 490.892 690.964 473.728 702.617C438.295 726.677 394.816 730.437 354.556 741.566C319.475 751.263 282.546 769.573 266.76 804.515C263.46 811.819 261.462 819.456 260.613 827.417C260.372 829.676 263.911 829.635 264.15 827.395" fill="#3E4042"/>
</svg>
