<svg width="1079" height="435" viewBox="0 0 1079 435" fill="none" xmlns="http://www.w3.org/2000/svg">
<path d="M961.328 321.44C1012.25 258.184 1017.8 162.232 974.516 93.5214C931.226 24.8172 842.268 -11.6094 763.205 7.0001C706.952 20.2418 658.288 57.7662 601.427 68.0961C516.046 83.6075 432.059 35.4004 345.368 31.5559C237.399 26.7678 139.06 90.4621 54.6366 157.914C26.4279 180.449 -4.07044 210.961 2.29939 246.495C8.92145 283.435 50.9666 301.143 87.5726 309.442C367.889 372.989 678.8 505.5 907.8 375" fill="#FBD437"/>
<path d="M31.3444 237.742C74.5737 175.905 137.192 128.401 207.901 102.266C243.647 89.0546 281.249 81.4586 319.327 79.8609C362.189 78.0604 404.994 83.0309 447.279 89.5727C529.106 102.233 612.5 122.249 695.682 110.606C736.769 104.855 773.982 88.9515 812.063 73.36C849.653 57.97 890.467 43.2346 931.616 51.4065C968.902 58.8115 1000.02 84.2376 1021.55 114.712C1046.07 149.408 1058.42 190.891 1068.05 231.791C1070.49 242.216 1072.78 252.683 1075.05 263.148C1075.54 265.37 1078.95 264.406 1078.46 262.185C1061.91 186.186 1040.06 96.9566 964.025 58.9042C885.392 19.5518 807.893 78.7224 733.405 99.2563C648.266 122.729 559.38 104.499 474.336 90.3675C431.664 83.2771 388.683 76.7703 345.357 76.0188C306.153 75.3388 267.155 80.0718 229.552 91.3142C157.569 112.834 91.9792 156.036 44.5509 214.381C38.8647 221.376 33.4567 228.589 28.2923 235.976C26.985 237.845 30.0619 239.595 31.3575 237.743" fill="#3E4042"/>
</svg>
