<svg width="41" height="38" viewBox="0 0 41 38" fill="none" xmlns="http://www.w3.org/2000/svg">
<path d="M13.4666 11.954L13.9795 11.8826L14.2172 11.4227L19.212 1.75965C19.212 1.75952 19.2121 1.75939 19.2122 1.75927C19.7371 0.745621 21.2999 0.747825 21.8268 1.76046C21.8269 1.76069 21.827 1.76092 21.8271 1.76114L26.8211 11.4227L27.0589 11.8826L27.5717 11.954L38.7472 13.5086L38.7479 13.5087C39.9858 13.68 40.3435 15.0411 39.5583 15.7706L39.558 15.7709L31.4727 23.2885L31.0727 23.6604L31.1695 24.198L33.0817 34.8169C33.2597 35.8094 32.1115 36.7814 30.9652 36.2062L30.965 36.2062L20.9675 31.192L20.5192 30.9671L20.0708 31.192L10.0733 36.2061L10.0702 36.2077C8.93068 36.7841 7.77768 35.8148 7.95663 34.8169L9.86882 24.198L9.96563 23.6604L9.56558 23.2885L1.48032 15.7709L1.48003 15.7706C0.694813 15.0411 1.05249 13.68 2.29039 13.5087L2.29109 13.5086L13.4666 11.954Z" fill="white" stroke="#FBD437" stroke-width="2"/>
</svg>
