<svg width="24" height="24" viewBox="0 0 24 24" fill="none" xmlns="http://www.w3.org/2000/svg">
<path d="M9.37266 13.4977H4.12266C3.11953 13.4977 2.61797 14.707 3.32578 15.4195L4.86797 16.8727L0.217969 21.5273C-0.0726563 21.818 -0.0726563 22.2961 0.217969 22.5867L1.40859 23.7773C1.69922 24.068 2.17734 24.068 2.46797 23.7773L7.12266 19.1227L8.58047 20.6695C9.28828 21.3773 10.4977 20.8758 10.4977 19.8727V14.6227C10.4977 13.9992 9.99609 13.4977 9.37266 13.4977ZM14.6227 10.4977H19.8727C20.8758 10.4977 21.3773 9.28359 20.6695 8.57578L19.1227 7.12266L23.7773 2.46797C24.068 2.17734 24.068 1.69922 23.7773 1.40859L22.5867 0.217969C22.2961 -0.0726563 21.818 -0.0726563 21.5273 0.217969L16.8727 4.87266L15.4148 3.32578C14.707 2.61797 13.4977 3.11953 13.4977 4.12266V9.37266C13.4977 9.99609 13.9992 10.4977 14.6227 10.4977ZM19.1227 16.8727L20.6695 15.4148C21.3773 14.707 20.8758 13.4977 19.8727 13.4977H14.6227C13.9992 13.4977 13.4977 13.9992 13.4977 14.6227V19.8727C13.4977 20.8758 14.7117 21.3773 15.4195 20.6695L16.8727 19.1273L21.5273 23.782C21.818 24.0727 22.2961 24.0727 22.5867 23.782L23.7773 22.5914C24.068 22.3008 24.068 21.8227 23.7773 21.532L19.1227 16.8727ZM8.57578 3.33047L7.12266 4.87266L2.46797 0.217969C2.17734 -0.0726563 1.69922 -0.0726563 1.40859 0.217969L0.217969 1.40859C-0.0726563 1.69922 -0.0726563 2.17734 0.217969 2.46797L4.87266 7.12266L3.32578 8.58047C2.61797 9.28828 3.11953 10.4977 4.12266 10.4977H9.37266C9.99609 10.4977 10.4977 9.99609 10.4977 9.37266V4.12266C10.4977 3.12422 9.28359 2.62266 8.57578 3.33047Z" fill="#F93676"/>
</svg>
