<svg width="27" height="24" viewBox="0 0 27 24" fill="none" xmlns="http://www.w3.org/2000/svg">
<path d="M13.4999 5.38875L3.25632 14.4239C3.18039 14.4923 3.08336 14.5242 2.99992 14.5809V23.25C2.99992 23.6644 3.33554 24 3.74992 24H10.7451L8.99992 20.587L13.8801 17.587L11.0601 11.9986L17.9999 18.4102L13.1198 21.4102L14.991 24H23.2499C23.6643 24 23.9999 23.6644 23.9999 23.25V14.5828C23.9202 14.5284 23.8255 14.4975 23.7534 14.4328L13.4999 5.38875ZM26.751 11.0756L23.9999 8.64609V2.25C23.9999 1.83563 23.6643 1.5 23.2499 1.5H20.2499C19.8355 1.5 19.4999 1.83563 19.4999 2.25V4.67297L14.7538 0.483282C14.3962 0.16172 13.948 0.000469775 13.4999 1.02496e-06C13.0518 -0.000467725 12.6046 0.159845 12.2484 0.481407L0.248824 11.0756C-0.0591445 11.3527 -0.0849258 11.8266 0.192105 12.135L1.19523 13.2516C1.47179 13.5595 1.94617 13.5853 2.25461 13.3083L13.004 3.82641C13.2876 3.57656 13.7127 3.57656 13.9963 3.82641L24.7457 13.3078C25.0537 13.5844 25.528 13.5591 25.8051 13.2511L26.8082 12.1345C27.0848 11.8266 27.0594 11.3522 26.751 11.0756Z" fill="#E85AED"/>
</svg>
