<svg width="1440" height="828" viewBox="0 0 1440 828" fill="none" xmlns="http://www.w3.org/2000/svg">
<path d="M1189.14 1010.5C1244.08 987.838 1268.49 920.329 1262.03 861.26C1255.58 802.195 1225.65 748.763 1199.7 695.303C1173.76 641.846 1150.81 583.199 1159.73 524.452C1164.56 492.642 1181.44 459.898 1211.42 448.206C1248.71 433.668 1288.91 455.927 1325.97 470.991C1384.11 494.618 1449.12 501.043 1510.77 489.253C1566.04 478.679 1619.43 453.794 1675.67 456.03C1745.17 458.794 1808.56 504.849 1842.96 565.284C1877.38 625.719 1885.46 698.443 1877.28 767.501C1869.7 831.496 1847.34 896.079 1801.48 941.35C1760.39 981.901 1703.71 1003.66 1646.64 1012.36C1589.57 1021.06 1531.43 1017.75 1473.8 1014.41C1380.27 1009 1286.72 1003.59 1193.19 998.171" fill="#C45FD3"/>
<path d="M992.887 982.742C1043.81 919.486 1049.36 823.533 1006.07 754.823C962.784 686.119 873.826 649.693 794.764 668.302C738.511 681.544 689.846 719.068 632.985 729.398C547.605 744.909 463.618 696.702 376.927 692.858C268.957 688.07 170.619 751.764 86.1951 819.215C57.9864 841.751 27.4881 872.263 33.8579 907.797C40.48 944.737 82.5251 962.445 119.131 970.744C399.448 1034.29 695.673 921.772 977.917 976.136" fill="#FBD437"/>
<path d="M-150.883 901.588C-84.7542 884.544 -35.526 830.655 8.79476 778.717C53.119 726.775 100.177 671.717 165.149 650.686C183.127 644.868 202.039 641.859 219.399 634.393C236.758 626.928 253.078 613.749 257.896 595.48C262.637 577.497 255.256 558.277 244.208 543.318C233.159 528.358 218.615 516.384 206.188 502.547C162.732 454.16 147.974 381.76 169.028 320.237C182.907 279.675 211.073 243.357 214.473 200.627C218.351 151.872 187.782 105.411 147.68 77.399C107.58 49.3882 59.055 36.5744 11.3945 25.5623C-37.9774 14.1545 -90.9209 4.33876 -138.263 22.3993C-175.527 36.6157 -205.113 67.2169 -223.363 102.673C-241.614 138.131 -249.324 178.208 -251.597 218.02C-264.433 442.859 -112.023 654.396 -132.504 878.677" fill="#C45FD3"/>
<path d="M-104.294 837.704C-99.7782 795.355 -59.4262 769.666 -22.266 758.023C18.2696 745.321 62.1928 742.564 99.5076 720.737C115.004 711.674 128.981 699.441 137.908 683.689C148.013 665.857 150.881 645.059 150.254 624.828C148.801 577.92 129.498 532.194 142.602 485.342C154.804 441.707 185.815 407.095 214.573 373.43C228.884 356.676 243.06 339.664 254.844 320.999C265.492 304.134 274.39 284.88 275.192 264.645C276.722 226.046 244.785 204.569 212.269 192.817C168.431 176.974 122.384 167.648 78.3717 152.314C67.6792 148.589 57.2236 143.981 47.9829 137.362C39.3211 131.157 31.7925 123.548 24.5033 115.821C10.9081 101.411 -2.31195 86.9322 -19.7925 77.1308C-54.093 57.9019 -95.0802 56.0581 -133.476 57.5829C-143.595 57.9853 -153.7 58.6512 -163.8 59.3802C-166.059 59.5429 -166.053 63.0799 -163.777 62.9159C-124.242 60.065 -82.7085 57.5378 -44.4804 70.167C-24.7412 76.688 -7.77029 87.6533 6.86173 102.349C20.6147 116.162 32.8796 131.812 49.3704 142.575C67.1308 154.166 88.3265 159.284 108.423 165.227C132.319 172.292 156.215 179.358 180.111 186.423C213.735 196.365 259.743 208.082 269.887 247.08C275.537 268.81 267.482 291.69 256.941 310.597C246.1 330.043 231.892 347.521 217.566 364.472C190.464 396.542 161.059 428.026 145.019 467.486C136.87 487.529 133.304 508.555 134.435 530.164C135.675 553.876 141.367 577.007 144.575 600.469C147.498 621.851 148.467 644.269 142.044 665.135C135.888 685.133 122.447 701.275 105.284 712.928C69.8499 736.987 26.3715 740.748 -13.8888 751.876C-48.9697 761.573 -85.899 779.883 -101.685 814.826C-104.984 822.13 -106.983 829.767 -107.832 837.728C-108.073 839.987 -104.533 839.945 -104.295 837.705" fill="#3E4042"/>
<path d="M97.9457 900.965C141.175 839.128 203.793 791.624 274.502 765.489C310.248 752.278 347.851 744.682 385.929 743.084C428.791 741.283 471.596 746.254 513.88 752.796C595.707 765.456 679.101 785.472 762.284 773.829C803.37 768.078 840.583 752.175 878.665 736.583C916.254 721.193 957.068 706.458 998.217 714.63C1035.5 722.035 1066.62 747.461 1088.15 777.935C1112.67 812.631 1125.03 854.114 1134.65 895.014C1137.09 905.439 1139.38 915.906 1141.65 926.371C1142.14 928.593 1145.55 927.629 1145.06 925.408C1128.51 849.409 1106.66 760.18 1030.63 722.127C951.993 682.775 874.494 741.945 800.007 762.479C714.867 785.952 625.981 767.723 540.937 753.591C498.265 746.5 455.284 739.993 411.958 739.242C372.755 738.562 333.756 743.295 296.153 754.537C224.171 776.057 158.58 819.259 111.152 877.604C105.466 884.599 100.058 891.812 94.8936 899.199C93.5862 901.068 96.6632 902.818 97.9587 900.966" fill="#3E4042"/>
<path d="M1317.28 902.069C1333.07 843.221 1307.43 782.629 1271.62 736.47C1252.17 711.392 1229.59 689.01 1207.01 666.786C1195.49 655.448 1183.95 644.127 1172.77 632.447C1161.71 620.886 1150.58 609.058 1142.31 595.272C1134.15 581.702 1129.11 565.83 1132.34 549.965C1135.08 536.486 1143.09 524.619 1153.37 515.68C1178.24 494.072 1212.69 493.261 1243.11 501.649C1276.1 510.746 1304.88 529.832 1335.22 544.982C1362.06 558.395 1390.66 567.773 1420.35 572.363C1485.27 582.398 1553.07 570.699 1610.29 538.22C1612.27 537.096 1610.47 534.051 1608.48 535.178C1554.82 565.636 1491.64 577.638 1430.46 570.219C1398.62 566.358 1367.71 557.066 1338.96 542.897C1309.48 528.376 1281.66 509.986 1250.12 500.037C1222.15 491.217 1190.08 488.961 1163.78 504.004C1142.69 516.066 1126.43 538.327 1127.89 563.41C1129.65 593.609 1153.39 617.516 1173.2 638C1195.66 661.228 1219.45 683.152 1241.5 706.78C1289.37 758.067 1333.48 828.008 1313.86 901.142C1313.27 903.342 1316.68 904.258 1317.27 902.06" fill="#3E4042"/>
</svg>
