<svg width="35" height="24" viewBox="0 0 35 24" fill="none" xmlns="http://www.w3.org/2000/svg">
<path d="M33.2764 1.20321C31.1984 0.331607 29.1187 6.44335e-08 27.0402 6.44335e-08C20.4418 -0.00053565 13.8439 3.33964 7.24554 3.33964C5.59071 3.33964 3.93696 3.12964 2.28214 2.60464C2.09625 2.54571 1.90982 2.51786 1.72768 2.51786C0.805714 2.51786 0 3.23143 0 4.22196V21.218C0 21.8946 0.387321 22.5359 1.00929 22.7962C3.08732 23.6684 5.16696 24 7.24554 24C13.8439 24 20.4423 20.6598 27.0407 20.6598C28.6955 20.6598 30.3493 20.8698 32.0041 21.3948C32.19 21.4538 32.3764 21.4816 32.5586 21.4816C33.4805 21.4816 34.2863 20.768 34.2863 19.7775V2.78196C34.2857 2.10482 33.8984 1.46411 33.2764 1.20321ZM2.57143 5.36893C3.64929 5.63893 4.77429 5.77446 5.93143 5.84732C5.61643 7.42179 4.23214 8.60839 2.57143 8.60839V5.36893ZM2.57143 20.6368V18.0771C4.41268 18.0771 5.9025 19.538 5.98446 21.3664C4.7775 21.2695 3.64929 21.0284 2.57143 20.6368ZM17.1429 17.1429C14.7755 17.1429 12.8571 14.8398 12.8571 12C12.8571 9.15964 14.7761 6.85714 17.1429 6.85714C19.5096 6.85714 21.4286 9.15964 21.4286 12C21.4286 14.8409 19.5091 17.1429 17.1429 17.1429ZM31.7143 18.6311C30.7757 18.3959 29.8013 18.2641 28.8043 18.1789C29.1187 16.7818 30.2775 15.7211 31.7143 15.5389V18.6311ZM31.7143 5.98232C30.0595 5.77286 28.7754 4.39125 28.7245 2.685C29.7712 2.80125 30.765 3.01875 31.7143 3.36321V5.98232Z" fill="#FBC037"/>
</svg>
