<svg width="49" height="47" viewBox="0 0 49 47" fill="none" xmlns="http://www.w3.org/2000/svg">
<g filter="url(#filter0_d)">
<path d="M22.3047 2.28996L17.3097 11.9534L6.13414 13.508C4.13004 13.7854 3.32686 16.1428 4.78022 17.4931L12.8655 25.0107L10.9532 35.6303C10.609 37.5498 12.7278 38.9876 14.5024 38.0899L24.5 33.0757L34.4976 38.0899C36.2722 38.9803 38.391 37.5498 38.0468 35.6303L36.1345 25.0107L44.2198 17.4931C45.6731 16.1428 44.87 13.7854 42.8659 13.508L31.6903 11.9534L26.6953 2.28996C25.8004 0.567471 23.2073 0.545575 22.3047 2.28996Z" fill="#FBD437"/>
<path d="M17.3786 12.4486L17.635 12.4129L17.7539 12.183L22.7487 2.51974C22.7488 2.51967 22.7488 2.51961 22.7488 2.51955C23.4626 1.14054 25.5406 1.15258 26.2515 2.52013C26.2515 2.52025 26.2516 2.52037 26.2516 2.52048L31.2461 12.183L31.365 12.4129L31.6214 12.4486L42.797 14.0032L42.7973 14.0033C44.4183 14.2276 44.9987 16.0869 43.8795 17.1268L43.8793 17.1269L35.794 24.6445L35.594 24.8305L35.6424 25.0993L37.5547 35.7185C37.8158 37.1746 36.1823 38.3758 34.7218 37.643L34.7217 37.643L24.7242 32.6288L24.5 32.5164L24.2758 32.6288L14.2783 37.643L14.2767 37.6437C12.8197 38.3808 11.1837 37.1772 11.4453 35.7185L13.3576 25.0993L13.406 24.8305L13.2059 24.6445L5.12069 17.1269L5.12054 17.1268C4.00126 16.0869 4.58168 14.2276 6.20268 14.0033L6.20303 14.0032L17.3786 12.4486Z" stroke="black"/>
</g>
<defs>
<filter id="filter0_d" x="0.038208" y="0.989868" width="48.9236" height="45.3738" filterUnits="userSpaceOnUse" color-interpolation-filters="sRGB">
<feFlood flood-opacity="0" result="BackgroundImageFix"/>
<feColorMatrix in="SourceAlpha" type="matrix" values="0 0 0 0 0 0 0 0 0 0 0 0 0 0 0 0 0 0 127 0"/>
<feOffset dy="4"/>
<feGaussianBlur stdDeviation="2"/>
<feColorMatrix type="matrix" values="0 0 0 0 0 0 0 0 0 0 0 0 0 0 0 0 0 0 0.25 0"/>
<feBlend mode="normal" in2="BackgroundImageFix" result="effect1_dropShadow"/>
<feBlend mode="normal" in="SourceGraphic" in2="effect1_dropShadow" result="shape"/>
</filter>
</defs>
</svg>
