<svg width="1440" height="804" viewBox="0 0 1440 804" fill="none" xmlns="http://www.w3.org/2000/svg">
<path d="M235.965 1011.28C181.027 988.619 156.616 921.111 163.072 862.042C169.528 802.977 199.454 749.545 225.4 696.085C251.345 642.628 274.293 583.98 265.37 525.234C260.543 493.424 243.661 460.68 213.681 448.987C176.399 434.45 136.199 456.709 99.1349 471.772C40.9946 495.399 -24.0131 501.824 -85.662 490.035C-140.937 479.461 -194.328 454.576 -250.563 456.812C-320.063 459.575 -383.455 505.631 -417.858 566.066C-452.273 626.501 -460.359 699.225 -452.179 768.283C-444.596 832.278 -422.233 896.86 -376.375 942.131C-335.287 982.683 -278.609 1004.44 -221.539 1013.14C-164.47 1021.85 -106.327 1018.53 -48.6944 1015.2C44.8393 1009.78 138.385 1004.37 231.919 998.953" fill="#C45FD3"/>
<path d="M432.218 983.523C381.294 920.268 375.742 824.315 419.03 755.605C462.321 686.901 551.278 650.474 630.341 669.084C686.594 682.325 735.259 719.85 792.119 730.18C877.5 745.691 961.487 697.484 1048.18 693.64C1156.15 688.851 1254.49 752.546 1338.91 819.997C1367.12 842.533 1397.62 873.045 1391.25 908.578C1384.62 945.518 1342.58 963.226 1305.97 971.526C1025.66 1035.07 729.431 922.554 447.188 976.918" fill="#FBD437"/>
<path d="M1575.99 902.37C1509.86 885.326 1460.63 831.436 1416.31 779.499C1371.99 727.556 1324.93 672.498 1259.96 651.468C1241.98 645.65 1223.07 642.641 1205.71 635.175C1188.35 627.71 1172.03 614.531 1167.21 596.261C1162.47 578.279 1169.85 559.059 1180.9 544.1C1191.95 529.139 1206.49 517.166 1218.92 503.328C1262.37 454.942 1277.13 382.541 1256.08 321.018C1242.2 280.456 1214.03 244.139 1210.63 201.409C1206.75 152.653 1237.32 106.193 1277.42 78.1807C1317.52 50.17 1366.05 37.3561 1413.71 26.344C1463.08 14.9362 1516.03 5.12047 1563.37 23.181C1600.63 37.3974 1630.22 67.9986 1648.47 103.454C1666.72 138.912 1674.43 178.99 1676.7 218.802C1689.54 443.641 1537.13 655.178 1557.61 879.459" fill="#C45FD3"/>
<path d="M1529.4 838.486C1524.88 796.136 1484.53 770.448 1447.37 758.805C1406.84 746.103 1362.91 743.345 1325.6 721.519C1310.1 712.455 1296.12 700.222 1287.2 684.471C1277.09 666.639 1274.22 645.841 1274.85 625.61C1276.3 578.702 1295.61 532.976 1282.5 486.124C1270.3 442.488 1239.29 407.876 1210.53 374.212C1196.22 357.458 1182.04 340.445 1170.26 321.78C1159.61 304.916 1150.71 285.662 1149.91 265.427C1148.38 226.828 1180.32 205.35 1212.84 193.599C1256.67 177.755 1302.72 168.43 1346.73 153.096C1357.43 149.371 1367.88 144.762 1377.12 138.143C1385.78 131.939 1393.31 124.33 1400.6 116.603C1414.2 102.192 1427.42 87.7138 1444.9 77.9125C1479.2 58.6836 1520.18 56.8398 1558.58 58.3646C1568.7 58.7669 1578.8 59.4329 1588.9 60.1618C1591.16 60.3246 1591.16 63.8616 1588.88 63.6975C1549.35 60.8467 1507.81 58.3195 1469.59 70.9487C1449.85 77.4696 1432.87 88.4349 1418.24 103.13C1404.49 116.944 1392.22 132.594 1375.73 143.356C1357.97 154.948 1336.78 160.066 1316.68 166.008C1292.79 173.073 1268.89 180.14 1244.99 187.205C1211.37 197.147 1165.36 208.863 1155.22 247.861C1149.57 269.591 1157.62 292.472 1168.16 311.378C1179 330.825 1193.21 348.302 1207.54 365.253C1234.64 397.324 1264.05 428.808 1280.09 468.268C1288.23 488.311 1291.8 509.337 1290.67 530.945C1289.43 554.657 1283.74 577.789 1280.53 601.251C1277.61 622.633 1276.64 645.05 1283.06 665.916C1289.22 685.914 1302.66 702.056 1319.82 713.71C1355.25 737.769 1398.73 741.53 1438.99 752.658C1474.07 762.355 1511 780.665 1526.79 815.607C1530.09 822.911 1532.09 830.548 1532.94 838.509C1533.18 840.768 1529.64 840.727 1529.4 838.487" fill="#3E4042"/>
<path d="M1327.16 901.747C1283.93 839.91 1221.31 792.405 1150.6 766.271C1114.86 753.059 1077.25 745.463 1039.18 743.866C996.314 742.065 953.509 747.036 911.224 753.577C829.398 766.237 746.004 786.254 662.821 774.611C621.734 768.859 584.521 752.956 546.44 737.365C508.851 721.975 468.037 707.239 426.887 715.411C389.601 722.816 358.488 748.242 336.954 778.717C312.438 813.412 300.079 854.895 290.458 895.795C288.015 906.221 285.727 916.687 283.451 927.152C282.961 929.375 279.557 928.411 280.046 926.19C296.591 850.191 318.444 760.961 394.479 722.909C473.111 683.557 550.611 742.727 625.098 763.261C710.237 786.734 799.123 768.504 884.168 754.372C926.84 747.282 969.821 740.775 1013.15 740.024C1052.35 739.343 1091.35 744.077 1128.95 755.319C1200.93 776.839 1266.52 820.041 1313.95 878.385C1319.64 885.381 1325.05 892.594 1330.21 899.981C1331.52 901.85 1328.44 903.6 1327.15 901.747" fill="#3E4042"/>
<path d="M107.83 902.851C92.0385 844.002 117.672 783.411 153.483 737.252C172.94 712.173 195.517 689.792 218.093 667.568C229.62 656.229 241.159 644.909 252.331 633.229C263.396 621.668 274.522 609.84 282.797 596.054C290.951 582.484 295.995 566.612 292.767 550.747C290.024 537.268 282.018 525.401 271.735 516.462C246.868 494.854 212.411 494.043 181.996 502.431C149.009 511.527 120.226 530.614 89.8872 545.764C63.041 559.177 34.4497 568.555 4.75948 573.145C-60.164 583.18 -127.969 571.481 -185.186 539.002C-187.163 537.878 -185.362 534.833 -183.372 535.96C-129.72 566.418 -66.5393 578.42 -5.35179 571.001C26.4847 567.14 57.3929 557.847 86.1452 543.679C115.625 529.158 143.441 510.768 174.983 500.818C202.953 491.999 235.029 489.743 261.327 504.786C282.416 516.848 298.675 539.108 297.21 564.191C295.452 594.391 271.712 618.297 251.904 638.782C229.441 662.01 205.654 683.934 183.604 707.562C135.735 758.849 91.6233 828.789 111.246 901.923C111.838 904.124 108.422 905.04 107.83 902.842" fill="#3E4042"/>
</svg>
