<svg width="27" height="24" viewBox="0 0 27 24" fill="none" xmlns="http://www.w3.org/2000/svg">
<path d="M8.38992 8.91429C7.95567 8.15893 7.13225 8.00357 6.55462 8.57143C5.977 9.13929 5.85819 10.2161 6.29244 10.9714L7.85326 13.6929C8.04989 14.0357 8.02122 14.5125 7.79181 14.8125L7.26744 15.4982C6.99296 15.8571 6.54643 15.8304 6.30063 15.4393L2.62185 9.66429V1.71429C2.62185 0.766071 2.03603 0 1.31092 0C0.585819 0 0 0.766071 0 1.71429V13.4143C0 13.9982 0.151576 14.5661 0.430147 15.0214L4.69475 22.2161C4.89958 22.5643 5.03887 22.9607 5.1208 23.3786C5.19454 23.7482 5.45263 24 5.74758 24H11.1429C11.5034 24 11.7983 23.6143 11.7983 23.1429V17.1429C11.7983 15.6589 11.4296 14.2179 10.7496 13.0286L8.38992 8.91429ZM24.9076 0C24.1825 0 23.5966 0.766071 23.5966 1.71429V9.66429L19.9179 15.4393C19.6721 15.825 19.2214 15.8518 18.951 15.4982L18.4267 14.8125C18.1973 14.5125 18.1686 14.0357 18.3652 13.6929L19.926 10.9714C20.3603 10.2161 20.2415 9.13929 19.6639 8.57143C19.0862 8.00357 18.2628 8.15893 17.8286 8.91429L15.4689 13.0286C14.7889 14.2179 14.4202 15.6589 14.4202 17.1429V23.1429C14.4202 23.6143 14.7151 24 15.0756 24H20.4709C20.7618 24 21.0239 23.7482 21.0977 23.3786C21.1796 22.9607 21.3189 22.5643 21.5237 22.2161L25.7883 15.0214C26.0669 14.5661 26.2185 13.9982 26.2185 13.4143V1.71429C26.2185 0.766071 25.6327 0 24.9076 0Z" fill="#36A7F9"/>
</svg>
