<svg width="721" height="459" viewBox="0 0 721 459" fill="none" xmlns="http://www.w3.org/2000/svg">
<path d="M136.522 330.218C136.522 413.141 41.3965 446.436 -6.16637 452.718V459L-113 398.064V-276H576.296V-125.231C583.126 -78.953 595.64 44.2241 667.764 74.5385C738.01 104.064 738.01 143.013 664.105 176.936C589.468 219.026 528.734 245.41 582.882 330.218C616.929 383.542 429.217 382.987 343.604 314.513C227.99 226.564 136.522 247.295 136.522 330.218Z" fill="#C45FD3"/>
<path d="M-40 347.388C11 392.888 104.31 397.682 165.5 344.388C243 276.888 236 241.888 294.5 241.888C367.515 241.888 440.65 315.971 486.5 326.888C560 344.388 608.1 298.982 592.5 248.582C576.9 198.182 597.24 157.699 636 108.5C682 50.1119 571.6 -62.2 530 -101C488.4 -139.8 730.167 -56.612 719.5 -63.112" stroke="#010B14" stroke-width="2"/>
</svg>
